<svg width="24" height="24" fill="none" xmlns="http://www.w3.org/2000/svg"><path d="M12 1.994c-.743 0-1.485.174-2.164.522h-.002L3.991 5.525A2.754 2.754 0 0 0 2.5 7.97v8.06c0 1.029.576 1.974 1.491 2.445l5.843 3.008.001.001a4.752 4.752 0 0 0 4.33 0h.001l5.843-3.01a2.752 2.752 0 0 0 1.49-2.444V7.97a2.752 2.752 0 0 0-1.49-2.445l-5.843-3.008-.001-.001A4.75 4.75 0 0 0 12 1.994Zm0 1.5c.508 0 1.016.12 1.481.358l5.84 3.006.001.001c.417.215.677.641.677 1.11v8.061c0 .47-.26.896-.678 1.112l-5.84 3.006c-.93.477-2.03.477-2.96.001h-.002l-5.841-3.007A1.247 1.247 0 0 1 4 16.03V7.97c0-.47.26-.896.678-1.112l5.842-3.006A3.246 3.246 0 0 1 12 3.494ZM5.735 7.245a.75.75 0 0 0-.33 1.42L9.82 10.96c.454.235.938.363 1.43.442v7.348a.751.751 0 1 0 1.5 0v-7.348c.492-.079.976-.207 1.429-.442l4.417-2.294a.75.75 0 0 0-.692-1.332l-4.417 2.295a3.225 3.225 0 0 1-1.502.36 3.225 3.225 0 0 1-1.473-.36L6.096 7.335a.75.75 0 0 0-.36-.09Z" fill="#1A1A1A"/></svg>